PathFileType	4	(X/Y/Z)	 s05c0401.trc
DataRate	CameraRate	NumFrames	NumMarkers	Units	OrigDataRate	OrigDataStartFrame	OrigNumFrames
200	200	7	50	mm	200	1501	2000
Frame#	Time	racr			lacr			c7			jug			rlel			rdr			llel			ldr			s2			lic			ric			lasi			rasi			rpsi			lpsi			rgt			lgt			rth1			rth2			rth3			rth4			rlfc			rmfc			rsh1			rsh2			rsh3			rsh4			rlmal			rmmal			rcal			rtoe			rmt5			lth1			lth2			lth4			lth3			llfc			lmfc			lsh1			lsh2			lsh3			lsh4			llmal			lmmal			lcal			ltoe			lmt5			SBIKE			LBIKE			RBIKE			
		X1	Y1	Z1	X2	Y2	Z2	X3	Y3	Z3	X4	Y4	Z4	X5	Y5	Z5	X6	Y6	Z6	X7	Y7	Z7	X8	Y8	Z8	X9	Y9	Z9	X10	Y10	Z10	X11	Y11	Z11	X12	Y12	Z12	X13	Y13	Z13	X14	Y14	Z14	X15	Y15	Z15	X16	Y16	Z16	X17	Y17	Z17	X18	Y18	Z18	X19	Y19	Z19	X20	Y20	Z20	X21	Y21	Z21	X22	Y22	Z22	X23	Y23	Z23	X24	Y24	Z24	X25	Y25	Z25	X26	Y26	Z26	X27	Y27	Z27	X28	Y28	Z28	X29	Y29	Z29	X30	Y30	Z30	X31	Y31	Z31	X32	Y32	Z32	X33	Y33	Z33	X34	Y34	Z34	X35	Y35	Z35	X36	Y36	Z36	X37	Y37	Z37	X38	Y38	Z38	X39	Y39	Z39	X40	Y40	Z40	X41	Y41	Z41	X42	Y42	Z42	X43	Y43	Z43	X44	Y44	Z44	X45	Y45	Z45	X46	Y46	Z46	X47	Y47	Z47	X48	Y48	Z48	X49	Y49	Z49	X50	Y50	Z50	
1501	7.5050	780.866833	1327.175393	-123.122200	762.318613	1347.424292	-428.789323	762.982778	1426.706933	-275.659634	713.935745	1264.485889	-279.405948	595.816454	1159.305888	44.957671	676.530201	957.225708	-35.332341	554.593406	1177.744453	-593.249850	672.581628	968.538775	-508.568174	176.511706	1258.233421	-207.001402	306.972310	1257.795967	-366.027277	340.938289	1253.099455	-83.991322	349.662773	1195.370657	-337.930935	362.081044	1186.641750	-117.176347	221.613874	1298.787751	-167.614835	217.354361	1302.310200	-255.265142	275.808213	1120.330374	-55.119391	223.924796	1160.173154	-386.119010	347.372299	1022.794855	-53.056303	412.156409	962.407340	-61.951617	435.967486	877.783974	-71.660659	440.154845	981.977074	-77.284256	488.950297	745.842933	-108.789042	468.740538	752.525975	-216.454952	387.943873	708.933594	-77.391053	322.676461	650.111515	-89.972314	239.945566	627.855012	-89.612437	337.834735	627.641848	-118.379688	122.833909	562.828248	-95.839535	150.208366	571.842690	-177.965664	62.281325	611.417110	-138.882199	164.116008	333.796889	-158.730746	104.005225	411.341126	-86.826229	282.987768	1027.346148	-414.768568	340.617752	963.956725	-414.923508	373.564070	978.550241	-404.413620	357.463040	874.898384	-415.524060	410.387503	740.206159	-393.447176	396.410405	724.793053	-288.342415	346.042121	628.861996	-424.502458	339.743938	541.945579	-417.472274	289.784780	468.436629	-419.122104	369.663284	533.156042	-394.615550	254.804354	351.210794	-417.904980	283.338188	367.228878	-345.489528	189.125599	328.733653	-375.699475	461.578421	217.830653	-396.552689	348.590011	229.493328	-455.568932	-214.153912	916.012720	-268.706167	-43.517453	84.917578	-475.094511	-51.811991	80.194777	-77.525577	
1502	7.5100	780.969974	1329.017706	-121.191128	762.922863	1350.326938	-426.635098	763.010627	1428.671226	-273.283982	714.353170	1266.623228	-277.719762	595.955919	1159.060052	45.304910	676.578215	957.320437	-35.796177	556.756646	1179.629825	-592.228914	672.840989	968.584083	-508.535891	176.256893	1256.870558	-210.519308	308.759126	1255.424530	-367.888084	339.564546	1253.901559	-85.453686	351.020652	1193.403787	-338.923260	361.438252	1187.306254	-118.321185	222.088097	1297.497800	-172.740724	217.426119	1300.460836	-258.172408	276.035764	1121.230879	-55.854301	224.485586	1157.066958	-387.267103	349.738014	1025.103401	-51.921746	415.966854	966.611743	-61.257723	442.154859	882.589383	-70.611834	443.481662	986.597422	-77.016918	497.812640	751.868075	-107.522962	478.024199	758.433220	-215.249713	396.562450	715.473645	-76.720551	330.790999	657.228591	-89.558575	247.971063	635.666182	-89.522029	345.501154	635.097854	-117.721751	130.563961	571.290863	-95.873061	158.111813	580.022903	-177.925136	70.246395	620.231778	-139.080361	170.485668	342.032705	-158.663405	110.884277	419.967982	-86.905905	281.028770	1023.200910	-415.409548	336.833034	958.290013	-414.902881	370.306680	971.905960	-403.885960	351.221174	868.758587	-415.165593	400.499598	732.880661	-392.488751	385.557514	716.954177	-287.953724	337.221625	620.875290	-424.423828	331.955655	533.959011	-417.305849	283.029113	459.761344	-419.418270	361.721755	525.556397	-393.979743	249.318073	343.360795	-418.266873	277.093555	359.736211	-346.644086	183.781980	321.622267	-376.143888	455.325199	208.046585	-396.535312	342.473311	220.695239	-455.664717	-214.131425	916.006732	-268.751845	-43.507317	84.910224	-475.108785	-51.807894	80.209037	-77.521448	
1503	7.5150	781.118055	1330.704429	-119.218801	763.395500	1353.278965	-424.294175	762.880841	1430.553361	-270.911654	714.685934	1268.696506	-275.957919	596.251832	1158.773733	46.055727	676.714561	957.478635	-36.106170	559.075656	1181.336588	-591.180199	673.574577	968.661752	-508.478717	176.158902	1255.341863	-213.343509	310.662625	1253.136992	-369.734946	338.076888	1254.510678	-87.320052	352.499877	1191.399861	-340.067125	360.713805	1187.876602	-119.431619	221.200444	1296.498553	-175.954678	217.472660	1298.360752	-260.990951	276.167545	1122.240259	-56.639763	225.118078	1154.155208	-388.396306	351.999725	1027.752096	-51.104948	419.631879	970.906018	-60.705131	448.094588	887.765372	-69.608514	446.622892	991.927808	-75.716085	506.569430	758.295272	-106.103874	487.517633	764.644422	-214.125451	405.153688	722.230436	-75.965785	338.979275	664.398944	-89.126189	255.950652	643.698994	-89.511039	353.798044	642.058779	-117.017508	138.618193	579.486766	-96.097697	166.301684	587.985387	-177.979288	78.487508	628.704780	-139.343664	177.559208	350.021140	-158.520304	118.244898	428.336517	-86.977556	279.200414	1019.380267	-416.456938	332.996993	952.725828	-415.112478	366.781011	965.387472	-403.887111	344.819406	862.787551	-415.039768	390.274872	725.562224	-391.883069	373.777696	710.013952	-287.953570	328.047304	613.125569	-424.539895	323.853726	526.235115	-417.409465	275.740806	451.542366	-419.938309	353.320686	518.271868	-393.658486	243.387817	335.975648	-418.791735	270.350844	352.675980	-347.890163	178.071294	314.084509	-375.493757	448.492520	198.658146	-396.627639	335.813445	212.323819	-455.817973	-214.132788	916.030129	-268.800265	-43.502307	84.937518	-475.109501	-51.796593	80.194189	-77.539257	
1504	7.5200	781.227392	1332.348610	-117.296658	763.784471	1356.156284	-421.760165	762.687441	1432.258448	-268.447335	714.894387	1270.912415	-274.080907	596.728004	1158.529938	47.145040	676.917101	957.627479	-36.455157	561.657339	1182.938479	-589.957510	674.750850	968.775039	-508.437288	176.054149	1253.821349	-216.156230	313.422182	1250.483706	-372.410151	336.730637	1255.132548	-89.155944	353.983695	1189.403198	-341.126230	359.913193	1188.343566	-120.620366	220.052800	1295.607864	-178.433090	217.501097	1296.551684	-264.225510	276.194927	1123.194754	-57.597956	225.942283	1151.294046	-389.517468	354.008110	1030.660259	-50.849744	423.066939	975.405409	-60.129120	453.784431	893.053579	-68.564763	449.687721	997.206362	-74.984107	515.258067	765.042171	-104.617946	496.749294	770.866968	-212.830146	413.707803	729.150559	-75.079753	347.271693	671.710930	-88.608103	264.409356	651.238588	-89.432167	362.243682	649.103837	-116.129311	146.956968	587.192301	-96.316629	174.811892	595.509826	-178.043182	86.709916	636.392532	-139.952136	185.216713	357.567626	-158.387529	126.124445	436.096205	-87.008447	277.397093	1015.583503	-417.563302	329.144872	947.265098	-415.446565	363.195237	959.201050	-404.164581	338.327231	857.084656	-415.368236	379.739335	718.575410	-391.823606	361.805367	703.478180	-288.282416	318.562293	605.912410	-425.049459	315.292653	518.970600	-417.792997	268.138637	443.585321	-420.609911	344.617874	511.353871	-393.597722	236.989877	329.078140	-419.380181	263.174481	346.064948	-349.209075	171.725404	309.094577	-377.948702	441.201458	189.858763	-396.617469	328.741019	204.422857	-455.988753	-214.129055	916.042901	-268.825851	-43.496106	84.921821	-475.120946	-51.798291	80.216195	-77.538501	
1505	7.5250	781.291323	1334.037432	-114.966489	764.065991	1359.022849	-419.141573	762.400320	1434.007846	-265.885544	714.973595	1272.878812	-272.189293	597.364588	1158.396123	48.596710	677.105904	957.834028	-36.745654	564.442686	1184.389728	-588.713195	676.289754	968.953903	-508.202468	175.934730	1252.246990	-219.206739	316.034857	1248.422509	-374.548889	335.104336	1255.755755	-90.781246	355.387529	1187.267118	-341.991117	359.104769	1188.752291	-121.660184	219.347516	1294.536820	-181.663559	217.812040	1294.829592	-267.577462	276.130117	1124.245016	-58.709092	226.926370	1148.493649	-390.638302	355.775557	1033.718211	-51.218088	426.280710	980.035933	-59.538284	459.260672	898.643090	-67.485723	452.560585	1002.582688	-74.154559	523.996561	772.029244	-102.844408	506.223383	777.383866	-211.759260	422.123178	736.386597	-74.122096	355.510795	679.028119	-88.007638	272.698222	658.843271	-89.338504	370.835995	656.191064	-115.154314	155.405855	594.466564	-96.604829	183.460575	602.688076	-178.236394	95.481785	643.752066	-140.129545	193.463716	364.791169	-158.184033	135.743165	443.745177	-86.130025	275.594451	1012.029151	-418.832672	325.237352	942.257383	-416.645356	359.527858	953.071011	-404.748518	331.625565	851.697381	-415.916354	368.962169	712.168912	-392.159789	349.763564	697.354355	-289.054347	308.961573	599.259941	-425.987892	306.364435	512.416530	-418.444239	259.931888	436.556524	-421.417407	335.587514	505.065924	-394.041787	230.111691	322.820752	-420.177180	255.628891	339.919881	-350.582139	165.111695	303.570877	-378.622756	433.409370	181.386197	-396.600437	321.079807	196.989180	-456.133298	-214.141184	916.043761	-268.816791	-43.486279	84.935989	-475.105824	-51.788161	80.203502	-77.549888	
1506	7.5300	781.327031	1335.402750	-113.002903	764.231671	1361.750474	-416.486235	762.050159	1435.584874	-263.291640	714.945236	1274.693658	-270.182116	598.199453	1158.384922	50.435739	677.303807	958.128579	-37.027011	567.383832	1185.750845	-587.525183	678.138390	969.167467	-507.813137	175.870542	1250.659191	-222.189165	318.833648	1246.304249	-376.646602	333.419305	1256.377978	-92.468898	356.771578	1185.107936	-342.756892	358.183266	1189.096850	-122.734543	219.207645	1293.204827	-184.640739	218.610977	1293.143036	-271.137969	276.001053	1125.154701	-59.918394	227.995745	1145.767716	-391.748808	357.331672	1036.869652	-51.892137	429.568590	984.805347	-59.549987	464.476839	904.256262	-66.391711	455.056779	1007.690162	-73.538651	532.277389	779.305805	-101.084332	515.452603	784.296187	-210.266005	430.399266	743.787860	-73.238914	363.907987	686.353779	-87.371237	280.983413	666.238988	-89.216066	379.111557	663.225655	-114.267227	164.178592	601.455619	-96.902800	192.342288	609.448213	-178.320802	104.337122	650.577473	-140.506077	202.053902	371.556668	-158.065849	144.406803	450.616823	-86.169646	273.872361	1008.617004	-420.061230	321.315462	937.450499	-417.735047	355.818988	947.170949	-405.523585	324.823159	846.737107	-416.718389	357.934416	706.513373	-392.988814	338.702747	691.340811	-290.413869	299.011296	593.635031	-427.086589	297.006330	506.724482	-419.452940	251.079936	430.589107	-422.299257	326.304749	499.636381	-395.000661	223.025503	317.038175	-421.016818	247.778501	334.257541	-351.990670	158.130829	298.437576	-378.968589	425.187306	173.436977	-396.637686	313.124119	190.065060	-456.387259	-214.175859	916.027354	-268.807425	-43.486906	84.933164	-475.105283	-51.784385	80.219065	-77.520741	
1507	7.5350	781.426879	1336.672344	-111.010835	764.386395	1364.352619	-413.759598	761.564813	1436.996393	-260.763892	714.730488	1276.552284	-268.057402	599.261693	1158.195674	52.638555	677.600961	958.428939	-37.061107	570.404570	1186.992646	-586.351025	680.145623	969.377922	-507.540569	175.858719	1248.979454	-225.377854	319.287008	1243.845697	-376.179235	331.998217	1256.681138	-93.842549	358.170615	1182.997943	-343.348973	357.266409	1189.400083	-123.667579	218.605154	1292.156261	-188.009409	219.306994	1291.111636	-274.165652	275.733334	1126.228583	-61.422012	229.297494	1143.141021	-392.820917	358.553339	1040.045618	-52.498084	432.166001	989.695544	-58.743588	469.427891	910.024767	-65.279958	457.475459	1013.326539	-73.091195	540.008453	786.966776	-99.687192	524.490158	791.080808	-209.021092	438.409892	751.185494	-72.403702	372.092010	693.594538	-86.804185	289.115093	673.476265	-89.074935	387.587345	670.209469	-113.191984	173.226384	607.873738	-97.254585	201.305192	615.790396	-178.466752	113.278320	656.866335	-140.729830	211.094038	377.934930	-157.990484	152.901914	457.085195	-86.349743	272.216195	1005.628795	-421.631191	317.352492	933.021533	-419.043117	352.026062	941.683057	-406.512262	317.892770	842.193661	-417.775264	347.076261	701.523266	-393.894528	326.435861	686.317838	-291.533539	289.018163	588.980038	-428.380567	287.397861	502.086384	-420.770465	241.847992	425.683674	-423.445833	316.818778	495.104709	-396.510146	215.617130	311.832048	-422.038221	239.687736	329.094693	-353.415984	150.937514	294.406327	-380.211700	416.564263	166.042297	-396.653389	304.742961	183.656504	-456.615940	-214.200344	916.041711	-268.792095	-43.473900	84.969823	-475.097749	-51.784724	80.233988	-77.527265	
